<svg height="512pt" viewBox="0 0 512 512" width="512pt" xmlns="http://www.w3.org/2000/svg"><path fill="white" d="m103.878906 73.578125-10.878906 3.109375v129.3125h170v-129.3125l-10.878906-3.109375c-48.488282-13.855469-99.753906-13.855469-148.242188 0zm129.121094 102.421875h-110v-76.410156c36.195312-8.535156 73.804688-8.535156 110 0zm0 0"/><path fill="white" d="m191.925781 281.570312-27.851562-11.140624-34.230469 85.570312h52l-17.769531 44.429688 27.851562 11.140624 34.230469-85.570312h-52zm0 0"/><path fill="white" d="m497 50v-50h-30v50h-40v-50h-30v50h-15v56c0 30.679688 21.371094 56.441406 50 63.234375v207.265625c0 10.753906-8.746094 19.5-19.5 19.5s-19.5-8.746094-19.5-19.5v-115c0-27.292969-22.207031-49.5-49.5-49.5h-1c-6.921875 0-13.511719 1.433594-19.5 4.011719v-171.011719c0-24.8125-20.1875-45-45-45h-200c-24.8125 0-45 20.1875-45 45v437h-33v30h356v-30h-33v-220.5c0-10.753906 8.746094-19.5 19.5-19.5h1c10.753906 0 19.5 8.746094 19.5 19.5v115c0 27.292969 22.207031 49.5 49.5 49.5s49.5-22.207031 49.5-49.5v-207.265625c28.628906-6.792969 50-32.554687 50-63.234375v-56zm-204 432h-230v-437c0-8.269531 6.730469-15 15-15h200c8.269531 0 15 6.730469 15 15zm189-376c0 19.300781-15.699219 35-35 35s-35-15.699219-35-35v-26h70zm0 0"/></svg>