<?xml version="1.0" encoding="iso-8859-1"?>
<!-- Generator: Adobe Illustrator 19.0.0, SVG Export Plug-In . SVG Version: 6.00 Build 0)  -->
<svg version="1.1" id="Capa_1" xmlns="http://www.w3.org/2000/svg" xmlns:xlink="http://www.w3.org/1999/xlink" x="0px" y="0px"
	 viewBox="0 0 480 480" style="enable-background:new 0 0 480 480;" xml:space="preserve">
<g>
	<g>
		<path fill="white" d="M414.398,48V16c0-8.824-7.18-16-16-16h-24c-8.82,0-16,7.176-16,16v32c0,8.824,7.18,16,16,16h8v16h-3.359
			c-11.164,0-20.766,7.582-23.352,18.441l-29.813,125.223c-4.961,20.84-7.477,42.262-7.477,63.672v80.362
			c-8.637-4.228-18.164-6.543-27.859-6.584l-155.648-0.688c-14.953-0.113-29.219,5.629-39.914,16.227
			c-10.688,10.598-16.578,24.723-16.578,39.773V448c0,4.418,3.578,8,8,8h320c3.383,0,6.391-2.125,7.531-5.305
			c0.317-0.884,0.434-1.792,0.433-2.695h0.036V104c0-10.416-6.708-19.213-16-22.526V64C407.219,64,414.398,56.824,414.398,48z
			 M94.398,440v-23.574c0-10.75,4.203-20.84,11.844-28.41c7.547-7.484,17.531-11.59,28.18-11.59c0.117,0,0.242,0,0.359,0
			l155.688,0.688c10.992,0.047,21.727,3.918,30.234,10.898L384.039,440H94.398z M398.398,431.082l-64-52.532v-91.213
			c0-20.164,2.367-40.34,7.039-59.969l29.813-125.219c0.867-3.621,4.07-6.148,7.789-6.148h11.359c4.414,0,8,3.59,8,8V431.082z
			 M374.398,48V16h24l0.008,32H374.398z"/>
	</g>
</g>
<g>
	<g>
		<rect fill="white" x="78.398" y="464" width="336" height="16"/>
	</g>
</g>
<g>
	<g>
		<path fill="white" d="M252.797,91.199l-24-32L216,68.801l14.984,19.98c-71.531,7.237-128.568,64.275-135.805,135.806l-19.984-14.985
			l-9.594,12.797l32,24c1.422,1.066,3.109,1.602,4.797,1.602s3.375-0.535,4.797-1.602l32-24l-9.594-12.797l-18.043,13.53
			c7.659-61.504,56.466-110.312,117.97-117.971L216,123.199l12.797,9.602l24-32C254.93,97.957,254.93,94.043,252.797,91.199z"/>
	</g>
</g>
<g>
	<g>
		<path fill="white" d="M165.172,245.5l15.203,5c16.219-49.348,62.039-82.5,114.023-82.5v-16C235.484,152,183.555,189.574,165.172,245.5z"/>
	</g>
</g>
<g>
	<g>
		<path fill="white" d="M174.398,288h-16c0,17.629,3.328,34.789,9.891,51l14.828-6C177.336,318.703,174.398,303.563,174.398,288z"/>
	</g>
</g>
<g>
</g>
<g>
</g>
<g>
</g>
<g>
</g>
<g>
</g>
<g>
</g>
<g>
</g>
<g>
</g>
<g>
</g>
<g>
</g>
<g>
</g>
<g>
</g>
<g>
</g>
<g>
</g>
<g>
</g>
</svg>
