<svg height="512pt" viewBox="0 0 512 512" width="512pt" xmlns="http://www.w3.org/2000/svg"><path fill="white" d="m437.019531 74.980469c-48.351562-48.351563-112.640625-74.980469-181.019531-74.980469s-132.667969 26.628906-181.019531 74.980469c-48.351563 48.351562-74.980469 112.640625-74.980469 181.019531s26.628906 132.667969 74.980469 181.019531c48.351562 48.351563 112.640625 74.980469 181.019531 74.980469s132.667969-26.628906 181.019531-74.980469c48.351563-48.351562 74.980469-112.640625 74.980469-181.019531s-26.628906-132.667969-74.980469-181.019531zm25.863281 89.757812-172.164062 62.664063c-1.007812-1.21875-2.082031-2.378906-3.207031-3.488282l77.421875-166.027343c18.441406 10.171875 35.566406 23 50.871094 38.304687 20.09375 20.097656 35.933593 43.308594 47.078124 68.546875zm-191.882812 91.261719c0 8.269531-6.730469 15-15 15s-15-6.730469-15-15 6.730469-15 15-15 15 6.730469 15 15zm144.804688 159.804688c-39.128907 39.132812-90.085938 62.132812-144.804688 65.691406v-29.496094h-30v29.496094c-54.71875-3.558594-105.675781-26.558594-144.804688-65.691406-39.132812-39.128907-62.132812-90.085938-65.691406-144.804688h29.496094v-30h-29.496094c3.558594-54.71875 26.558594-105.675781 65.691406-144.804688 39.128907-39.132812 90.085938-62.132812 144.804688-65.691406v29.496094h30v-29.496094c23.128906 1.503906 45.582031 6.472656 66.757812 14.675782l-23.773437 50.976562c-18.507813-6.738281-37.949219-10.15625-57.984375-10.15625-93.738281 0-170 76.261719-170 170h30c0-77.195312 62.804688-140 140-140 15.609375 0 30.769531 2.503906 45.253906 7.460938l-14.492187 31.074218c-9.902344-3.007812-20.199219-4.535156-30.761719-4.535156-58.449219 0-106 47.550781-106 106s47.550781 106 106 106v-30c-41.90625 0-76-34.09375-76-76s34.09375-76 76-76c6.113281 0 12.09375.714844 17.902344 2.113281l-13.570313 29.101563c-1.425781-.140625-2.871093-.214844-4.332031-.214844-24.8125 0-45 20.1875-45 45s20.1875 45 45 45 45-20.1875 45-45c0-.136719-.007812-.273438-.011719-.410156l172.125-62.652344c4.488281 15.539062 7.316407 31.628906 8.382813 48.0625h-29.496094v30h29.496094c-3.558594 54.71875-26.558594 105.675781-65.691406 144.804688zm0 0"/><path fill="white" d="m346 306c0 8.285156-6.714844 15-15 15s-15-6.714844-15-15 6.714844-15 15-15 15 6.714844 15 15zm0 0"/><path fill="white" d="m385 151c0 8.285156-6.714844 15-15 15s-15-6.714844-15-15 6.714844-15 15-15 15 6.714844 15 15zm0 0"/></svg>