<svg height="512pt" viewBox="0 0 512 512" width="512pt" xmlns="http://www.w3.org/2000/svg"><path fill="white" d="m350.898438 185.4375c-1.710938-3.335938-5.148438-5.4375-8.898438-5.4375h-36.265625c26.726563-39.707031 40.265625-69.941406 40.265625-90 0-49.625-40.375-90-90-90s-90 40.375-90 90c0 20.054688 13.535156 50.277344 40.265625 90h-36.265625c-3.75 0-7.1875 2.101562-8.898438 5.4375l-51.546874 100.515625c-2.519532 4.914063-.578126 10.941406 4.335937 13.460937 4.894531 2.511719 10.933594.597657 13.460937-4.332031l48.757813-95.082031h34.445313l-131.027344 292h-53.160156l64.484374-125.742188c2.519532-4.917968.578126-10.941406-4.335937-13.464843-4.914063-2.519531-10.941406-.578125-13.460937 4.335937l-71.953126 140.308594c-1.589843 3.101562-1.453124 6.804688.367188 9.777344 1.816406 2.972656 5.046875 4.785156 8.53125 4.785156h492c3.484375 0 6.71875-1.8125 8.53125-4.785156 1.816406-2.972656 1.957031-6.679688.367188-9.777344zm-94.898438-165.4375c38.597656 0 70 31.402344 70 70 0 31.664062-50.390625 99.257812-70 124.066406-19.765625-25.003906-70-92.390625-70-124.066406 0-38.597656 31.402344-70 70-70zm-28.148438 190.296875c8.148438 10.863281 14.804688 19.175781 18.148438 23.28125v22.421875c0 5.523438 4.476562 10 10 10s10-4.476562 10-10v-22.421875c3.34375-4.105469 10-12.417969 18.148438-23.28125l126.402343 281.703125h-144.550781v-36c0-5.523438-4.476562-10-10-10s-10 4.476562-10 10v36h-144.550781zm204.621094 281.703125-131.023437-292h34.441406l149.742187 292zm0 0"/><path fill="white" d="m256 326c5.523438 0 10-4.476562 10-10v-20c0-5.523438-4.476562-10-10-10s-10 4.476562-10 10v20c0 5.523438 4.476562 10 10 10zm0 0"/><path fill="white" d="m256 386c5.523438 0 10-4.476562 10-10v-20c0-5.523438-4.476562-10-10-10s-10 4.476562-10 10v20c0 5.523438 4.476562 10 10 10zm0 0"/><path fill="white" d="m256 130c22.054688 0 40-17.945312 40-40s-17.945312-40-40-40-40 17.945312-40 40 17.945312 40 40 40zm0-60c11.027344 0 20 8.972656 20 20s-8.972656 20-20 20-20-8.972656-20-20 8.972656-20 20-20zm0 0"/><path fill="white" d="m100 336c5.519531 0 10-4.480469 10-10s-4.480469-10-10-10-10 4.480469-10 10 4.480469 10 10 10zm0 0"/><path fill="white" d="m256 426c5.519531 0 10-4.480469 10-10s-4.480469-10-10-10-10 4.480469-10 10 4.480469 10 10 10zm0 0"/></svg>