<svg height="395pt" viewBox="0 -46 395.94586 395" width="395pt" xmlns="http://www.w3.org/2000/svg"><path fill="white" d="m359.078125.539062c-20.328125 0-36.871094 16.535157-36.871094 36.867188s16.539063 36.867188 36.871094 36.867188 36.867187-16.535157 36.867187-36.867188-16.535156-36.867188-36.867187-36.867188zm0 60.082032c-12.804687 0-23.21875-10.414063-23.21875-23.214844s10.414063-23.214844 23.21875-23.214844c12.800781 0 23.214844 10.414063 23.214844 23.214844s-10.414063 23.214844-23.214844 23.214844zm0 0"/><path fill="white" d="m344.257812 75.15625c-16.09375-4.011719-33.078124 3.230469-41.3125 17.625l-39.894531 69.824219c-4.628906 8.09375-14.414062 11.828125-23.253906 8.878906l-48.195313-16.0625c-17.355468-5.792969-36.378906.164063-47.34375 14.789063l-66.5625 88.75c-8.386718 11.179687-7.257812 27.058593 2.625 36.9375 5.328126 5.332031 12.5 8.28125 19.96875 8.28125.777344 0 1.5625-.035157 2.347657-.097657 8.292969-.6875 15.820312-4.964843 20.664062-11.738281l54.648438-76.515625c2.914062-4.085937 8.378906-5.617187 12.996093-3.640625l63.824219 27.355469c21.230469 9.109375 46.222657 1.03125 58.125-18.792969l54.230469-90.382812c6.121094-10.207032 7.023438-22.371094 2.464844-33.367188-4.550782-10.992188-13.789063-18.957031-25.332032-21.84375zm11.160157 48.1875-54.226563 90.382812c-8.402344 13.996094-26.046875 19.6875-41.039062 13.269532l-63.828125-27.355469c-10.457031-4.476563-22.863281-1.019531-29.484375 8.253906l-54.652344 76.515625c-2.5 3.5-6.386719 5.710938-10.675781 6.066406-4.300781.335938-8.492188-1.1875-11.535157-4.230468-5.109374-5.105469-5.691406-13.3125-1.359374-19.089844l66.5625-88.75c5.542968-7.390625 14.117187-11.515625 22.996093-11.515625 3.039063 0 6.113281.484375 9.109375 1.484375l48.191406 16.0625c15.003907 5.015625 31.585938-1.324219 39.429688-15.058594l39.894531-69.824218c5.214844-9.113282 15.984375-13.683594 26.144531-11.152344 7.308594 1.824218 13.152344 6.867187 16.035157 13.828125 2.882812 6.960937 2.316406 14.652343-1.5625 21.113281zm0 0"/><path fill="white" d="m6.824219 127.703125h99.316406c2.304687 0 4.453125-1.164063 5.714844-3.089844s1.464843-4.359375.539062-6.46875l-49.660156-113.578125c-1.085937-2.488281-3.539063-4.09375-6.25-4.09375-2.714844 0-5.167969 1.605469-6.257813 4.09375l-49.652343 113.578125c-.925781 2.109375-.722657 4.542969.539062 6.472657 1.257813 1.925781 3.410157 3.085937 5.710938 3.085937zm49.65625-103.363281 39.222656 89.710937h-78.441406zm0 0"/><path fill="white" d="m160.105469 137.78125c1.128906.734375 2.425781 1.109375 3.734375 1.109375.933594 0 1.867187-.191406 2.746094-.578125l113-49.65625c2.480468-1.09375 4.078124-3.542969 4.078124-6.25s-1.597656-5.160156-4.078124-6.25l-113-49.660156c-2.113282-.933594-4.542969-.734375-6.480469.53125-1.929688 1.257812-3.09375 3.410156-3.09375 5.71875v99.3125c0 2.3125 1.164062 4.460937 3.09375 5.722656zm10.558593-94.578125 89.210938 39.203125-89.210938 39.199219zm0 0"/><path fill="white" d="m111.851562 144.441406c-1.261718-1.921875-3.410156-3.082031-5.710937-3.082031h-99.316406c-2.300781 0-4.445313 1.160156-5.707031 3.082031-1.261719 1.925782-1.46875 4.355469-.550782 6.464844l49.65625 114.230469c1.082032 2.492187 3.542969 4.105469 6.257813 4.105469 2.71875 0 5.175781-1.613282 6.261719-4.101563l49.660156-114.230469c.917968-2.113281.710937-4.542968-.550782-6.46875zm-55.371093 100.851563-39.246094-90.28125h78.492187zm0 0"/></svg>