<svg height="512pt" viewBox="0 0 512 512" width="512pt" xmlns="http://www.w3.org/2000/svg"><path fill="white" d="m60 512c16.003906 0 31.191406-6.183594 42.765625-17.414062 11.757813-11.410157 18.234375-26.53125 18.234375-42.585938 0-33.066406-27.933594-61-61-61-16.054688 0-31.175781 6.476562-42.585938 18.234375-11.230468 11.574219-17.414062 26.761719-17.414062 42.765625 0 33.085938 26.914062 60 60 60zm0-91c16.515625 0 31 14.484375 31 31 0 16.261719-14.195312 30-31 30-16.542969 0-30-13.457031-30-30 0-16.804688 13.738281-31 30-31zm0 0"/><path fill="white" d="m15 330h30c74.261719 0 137 62.738281 137 137v30c0 8.285156 6.714844 15 15 15h60c8.285156 0 15-6.714844 15-15v-30c0-60.011719-23.785156-116.84375-66.96875-160.03125-43.1875-43.183594-100.019531-66.96875-160.03125-66.96875h-30c-8.285156 0-15 6.714844-15 15v60c0 8.285156 6.714844 15 15 15zm15-60h15c106.785156 0 197 90.214844 197 197v15h-30v-15c0-44.007812-17.535156-85.777344-49.378906-117.621094s-73.613282-49.378906-117.621094-49.378906h-15zm0 0"/><path fill="white" d="m374.65625 137.34375c-87.179688-87.175781-204.753906-137.34375-329.65625-137.34375h-30c-8.285156 0-15 6.714844-15 15v60c0 8.285156 6.714844 15 15 15h30c207.878906 0 377 169.121094 377 377v30c0 8.285156 6.714844 15 15 15h60c8.285156 0 15-6.714844 15-15v-30c0-124.765625-50.070312-242.382812-137.34375-329.65625zm107.34375 344.65625h-30v-15c0-108.5-43.550781-211.054688-119.75-287.25-76.09375-76.097656-178.609375-119.75-287.25-119.75h-15v-30h15c240.960938 0 437 196.039062 437 437zm0 0"/><path fill="white" d="m15 210h30c141.710938 0 257 115.289062 257 257v30c0 8.285156 6.714844 15 15 15h60c8.285156 0 15-6.714844 15-15v-30c0-93.796875-38.144531-180.832031-102.15625-244.84375-63.992188-63.992188-151.019531-102.15625-244.84375-102.15625h-30c-8.285156 0-15 6.714844-15 15v60c0 8.285156 6.714844 15 15 15zm15-60h15c174.792969 0 317 142.207031 317 317v15h-30v-15c0-76.257812-30.730469-148.597656-84.566406-202.433594-53.703125-53.707031-125.992188-84.566406-202.433594-84.566406h-15zm0 0"/></svg>